<?xml version="1.0" ?><!DOCTYPE svg  PUBLIC '-//W3C//DTD SVG 1.1//EN'  'http://www.w3.org/Graphics/SVG/1.1/DTD/svg11.dtd'><svg height="100%" style="fill-rule:evenodd;clip-rule:evenodd;stroke-linejoin:round;stroke-miterlimit:2;" version="1.1" viewBox="0 0 24 24" width="100%" xml:space="preserve" xmlns="http://www.w3.org/2000/svg" xmlns:serif="http://www.serif.com/" xmlns:xlink="http://www.w3.org/1999/xlink"><g id="Icon"><path d="M18.871,20.493c0.457,-0.266 0.954,-0.556 1.445,-0.843c0.857,-0.5 1.378,-1.423 1.364,-2.415c-0.014,-0.992 -0.562,-1.899 -1.433,-2.375c-0.505,-0.275 -1.006,-0.548 -1.442,-0.786c-1.078,-0.588 -2.362,-0.665 -3.501,-0.209c-0.252,0.101 -0.498,0.199 -0.703,0.281c-0.153,0.062 -0.325,0.06 -0.477,-0.005c-0.047,-0.021 -0.097,-0.042 -0.148,-0.064c-1.821,-0.78 -3.273,-2.232 -4.053,-4.053c-0,0 -0,-0 -0,-0.001c-0.086,-0.199 -0.07,-0.428 0.041,-0.614c0.09,-0.149 0.189,-0.315 0.292,-0.486c0.731,-1.219 0.711,-2.746 -0.052,-3.945c-0.315,-0.495 -0.673,-1.059 -1.026,-1.612c-0.515,-0.81 -1.414,-1.292 -2.373,-1.274c-0.959,0.019 -1.839,0.536 -2.322,1.364c-0.329,0.564 -0.668,1.145 -0.976,1.673c-0.85,1.456 -0.864,3.253 -0.037,4.722c0.222,0.396 0.466,0.829 0.719,1.278c2.044,3.635 5.047,6.638 8.682,8.682c0.449,0.253 0.882,0.497 1.278,0.719c1.469,0.827 3.266,0.813 4.722,-0.037Zm-0.756,-1.295c-0.996,0.581 -2.226,0.59 -3.231,0.025c-0.396,-0.223 -0.829,-0.466 -1.278,-0.719c-3.395,-1.91 -6.2,-4.715 -8.11,-8.11c-0.253,-0.449 -0.496,-0.882 -0.719,-1.278c-0.565,-1.005 -0.556,-2.235 0.025,-3.231c0.308,-0.528 0.647,-1.109 0.976,-1.673c0.22,-0.376 0.62,-0.611 1.056,-0.62c0.436,-0.008 0.845,0.211 1.079,0.579c0.352,0.554 0.71,1.117 1.026,1.612c0.458,0.72 0.47,1.637 0.031,2.368c-0.103,0.171 -0.203,0.337 -0.292,0.487c-0.36,0.599 -0.409,1.334 -0.134,1.976c-0,0.001 0,0.001 0,0.001c0.932,2.175 2.666,3.909 4.841,4.841c0.051,0.022 0.101,0.043 0.148,0.063c0.518,0.222 1.102,0.229 1.625,0.02c0.205,-0.082 0.451,-0.18 0.703,-0.281c0.724,-0.29 1.54,-0.241 2.226,0.133c0.436,0.237 0.936,0.51 1.442,0.786c0.396,0.216 0.645,0.629 0.651,1.08c0.007,0.451 -0.23,0.87 -0.62,1.097c-0.491,0.287 -0.988,0.577 -1.445,0.844Z"/></g></svg>