<svg width="48" fill="#000000" xmlns="http://www.w3.org/2000/svg" height="48" viewBox="0 0 48 48" xmlns:xlink="http://www.w3.org/1999/xlink" enable-background="new 0 0 16 16">
<path d="m47.772,19.851c-.462-1.119-1.56-1.851-2.772-1.851h-3v-3c0-4.971-4.029-9-9-9h-18c-4.065,0-7.464,2.715-8.577,6.42 .828-.249 1.686-.42 2.577-.42 1.362,0 2.667,.333 3.861,.903 .546-.555 1.299-.903 2.139-.903h18c1.659,0 3,1.344 3,3v3h-3c-1.212,0-2.31,.732-2.772,1.851-.462,1.122-.207,2.412 .651,3.27l6,6c.585,.585 1.353,.879 2.121,.879s1.536-.294 2.121-.879l6-6c.858-.858 1.116-2.148 .651-3.27zm-12.633,15.246c-.546,.555-1.299,.903-2.139,.903h-18c-1.656,0-3-1.341-3-3v-3h3c1.212,0 2.31-.732 2.772-1.851 .465-1.122 .207-2.412-.651-3.27l-6-6c-.585-.585-1.353-.879-2.121-.879s-1.536,.294-2.121,.879l-6,6c-.858,.858-1.113,2.148-.651,3.27 .462,1.119 1.56,1.851 2.772,1.851h3v3c0,4.971 4.029,9 9,9h18c4.068,0 7.464-2.715 8.577-6.42-.828,.249-1.686,.42-2.577,.42-1.362,0-2.667-.33-3.861-.903z"/>
</svg>
