<svg width="30" height="30" viewBox="0 0 30 30" fill="none" xmlns="http://www.w3.org/2000/svg">
<path d="M25.8967 14.8237C25.5714 14.8104 25.2989 15.0649 25.2868 15.3895C25.2836 15.4735 25.2794 15.5573 25.2743 15.6408C25.2543 15.965 25.5009 16.2441 25.8252 16.2642C25.8375 16.265 25.8498 16.2654 25.862 16.2654C26.1703 16.2654 26.4293 16.0253 26.4486 15.7134C26.4543 15.6205 26.4589 15.5272 26.4624 15.4336C26.4746 15.109 26.2213 14.8359 25.8967 14.8237Z" fill="black"/>
<path d="M29.1012 9.86479C29.1918 9.69047 29.1914 9.47795 29.0896 9.30076C29.017 9.17438 28.9028 9.0835 28.7721 9.0382C28.0305 7.32627 26.9654 5.75221 25.6065 4.3933C22.7735 1.56023 19.0066 0 15 0C10.9934 0 7.22654 1.56023 4.39342 4.39342C1.56029 7.2266 0 10.9934 0 15C0 17.1321 0.443613 19.1954 1.28402 21.0871C0.992051 21.4114 0.832207 21.8265 0.832207 22.2662C0.832207 22.7376 1.01578 23.1807 1.34906 23.514C1.69313 23.8581 2.145 24.03 2.59687 24.03C2.72801 24.03 2.85902 24.0151 2.98758 23.9861C3.41373 24.5538 3.88254 25.0956 4.39342 25.6065C5.12016 26.3333 5.90936 26.9747 6.74736 27.529C6.54264 28.1435 6.68408 28.8489 7.17229 29.3372C7.51635 29.6812 7.96822 29.8532 8.4201 29.8532C8.87197 29.8532 9.32391 29.6812 9.66791 29.3372L9.89385 29.1112C11.5095 29.6949 13.2312 30 15 30C19.0066 30 22.7735 28.4398 25.6066 25.6066C28.4397 22.7734 30 19.0066 30 15C30 13.2206 29.6916 11.4888 29.1012 9.86479ZM1.17645 15C1.17645 7.37771 7.37766 1.17645 15 1.17645C15.8935 1.17645 16.7668 1.26346 17.6133 1.42646L15.5565 3.48322C15.3264 3.50344 15.113 3.52939 15 3.52939C8.6751 3.52939 3.52939 8.6751 3.52939 15C3.52939 16.1617 3.70377 17.2833 4.02645 18.341L2.18584 20.1816C1.53586 18.5804 1.17645 16.8316 1.17645 15ZM12.9272 7.91947L12.9433 8.17957C12.9895 8.92436 12.7133 9.65408 12.1857 10.1817L4.9848 17.3825C4.80275 16.6175 4.70584 15.82 4.70584 15C4.70584 9.55564 8.95447 5.08564 14.3102 4.72951L14.0271 5.01264C13.2611 5.77863 12.8602 6.83818 12.9272 7.91947ZM2.18092 22.6821C2.06982 22.571 2.00865 22.4234 2.00865 22.2662C2.00865 22.1091 2.06982 21.9613 2.18092 21.8503L13.0175 11.0137C13.7835 10.2476 14.1845 9.18809 14.1175 8.10686L14.1013 7.84676C14.0552 7.10197 14.3313 6.37225 14.859 5.84461L18.9401 1.76367C18.9573 1.7465 18.9728 1.72822 18.9874 1.70953L19.0994 1.79701C19.4673 1.9115 19.8286 2.041 20.1826 2.18479L16.0042 6.36328C15.7745 6.59297 15.7745 6.96545 16.0042 7.1952C16.119 7.31004 16.2696 7.36746 16.4201 7.36746C16.5707 7.36746 16.7213 7.30998 16.8361 7.1952L21.2174 2.81391C21.252 2.77928 21.2808 2.74107 21.305 2.70094C21.6728 2.89031 22.0308 3.09592 22.3787 3.31641L22.0494 3.64576C22.0494 3.64576 22.0494 3.64576 22.0493 3.64576L17.668 8.02705C17.4383 8.25674 17.4383 8.62922 17.668 8.85896C17.7829 8.97381 17.9334 9.03123 18.084 9.03123C18.2345 9.03123 18.3851 8.97375 18.4999 8.85896L23.3597 3.99908C25.1602 5.37059 26.615 7.17299 27.5695 9.25143L25.8863 9.69451C23.0177 10.4497 20.3927 11.9575 18.2953 14.055L15.8924 16.4579C15.4223 16.928 15.1806 17.5781 15.2295 18.2412C15.2532 18.5629 15.1359 18.8781 14.9079 19.1062L10.0135 24.0006C8.62119 23.2263 7.42647 22.1394 6.52488 20.8341L14.6815 12.6775C15.2091 12.1498 15.939 11.8743 16.6838 11.9197L16.9438 11.9358C18.025 12.0032 19.0846 11.6019 19.8506 10.8359L24.5452 6.14133C24.7748 5.91164 24.7748 5.53916 24.5452 5.30941C24.3155 5.07978 23.943 5.07978 23.7132 5.30941L19.0187 10.0039C18.4911 10.5316 17.7615 10.8074 17.0164 10.7617L16.7564 10.7456C15.6755 10.6781 14.6156 11.0796 13.8496 11.8455L3.01283 22.6821C2.78355 22.9115 2.41037 22.9114 2.18092 22.6821ZM3.99967 23.3591L5.68072 21.6781C6.60451 22.9634 7.78699 24.05 9.15164 24.8623L7.44469 26.5692C6.1217 25.7021 4.95598 24.6146 3.99967 23.3591ZM8.83611 28.5053C8.60672 28.7347 8.23353 28.7346 8.0042 28.5053C7.77486 28.2761 7.77486 27.9028 8.0042 27.6735L15.7397 19.938C16.2098 19.4678 16.4515 18.8178 16.4027 18.1547C16.3789 17.8331 16.4962 17.5177 16.7243 17.2896L19.1271 14.8868C21.0775 12.9364 23.5183 11.5343 26.1857 10.8322L26.6249 10.7165L8.83611 28.5053ZM15 28.8236C13.5458 28.8236 12.1437 28.5973 10.8263 28.179L12.7557 26.2495C13.4817 26.3942 14.2321 26.4706 15.0001 26.4706C17.2218 26.4706 19.3786 25.8316 21.2374 24.6229C23.0472 23.4461 24.4858 21.7931 25.3975 19.8428C25.5351 19.5485 25.4081 19.1984 25.1138 19.0608C24.8194 18.9231 24.4693 19.0502 24.3318 19.3446C22.642 22.9588 18.979 25.2941 15 25.2941C14.5884 25.2941 14.1825 25.2693 13.7835 25.2217L28.1787 10.8265C28.597 12.144 28.8236 13.5459 28.8236 14.9999C28.8236 22.6223 22.6223 28.8236 15 28.8236Z" fill="black"/>
</svg>
