<?xml version="1.0" ?><!DOCTYPE svg  PUBLIC '-//W3C//DTD SVG 1.1//EN'  'http://www.w3.org/Graphics/SVG/1.1/DTD/svg11.dtd'><svg height="100%" style="fill-rule:evenodd;clip-rule:evenodd;stroke-linejoin:round;stroke-miterlimit:2;" version="1.1" viewBox="0 0 24 24" width="100%" xml:space="preserve" xmlns="http://www.w3.org/2000/svg" xmlns:serif="http://www.serif.com/" xmlns:xlink="http://www.w3.org/1999/xlink"><g id="Icon"><path d="M12.062,2.376c-1.081,-0.164 -2.179,0.152 -3.007,0.864c-0.828,0.712 -1.305,1.751 -1.305,2.843c-0,3.385 -0,8.497 -0,11.917c-0,1.112 0.493,2.167 1.347,2.879c0.854,0.713 1.98,1.009 3.074,0.81c1.638,-0.297 3.573,-0.649 5.179,-0.941c2.258,-0.411 3.9,-2.378 3.9,-4.673c-0,-2.446 -0,-5.754 -0,-8.223c0,-2.348 -1.716,-4.344 -4.038,-4.696c-1.612,-0.244 -3.533,-0.535 -5.15,-0.78Zm-0.225,1.483c1.617,0.245 3.539,0.536 5.15,0.78c1.589,0.241 2.763,1.606 2.763,3.213c-0,2.469 -0,5.777 -0,8.223c-0,1.57 -1.123,2.916 -2.669,3.197c-1.605,0.292 -3.54,0.644 -5.179,0.942c-0.656,0.119 -1.331,-0.059 -1.844,-0.487c-0.512,-0.427 -0.808,-1.06 -0.808,-1.727c-0,-3.42 -0,-8.532 -0,-11.917c-0,-0.655 0.286,-1.278 0.783,-1.706c0.497,-0.427 1.156,-0.616 1.804,-0.518Z"/><circle cx="11.5" cy="12.095" r="1"/><path d="M6.499,20.345c-2.07,-0.001 -3.749,-1.68 -3.749,-3.75c0,-2.615 0,-6.388 0,-9.002c-0,-0.994 0.395,-1.948 1.098,-2.651c0.703,-0.703 1.656,-1.097 2.65,-1.097l0.002,-0c0.414,-0 0.75,0.336 0.75,0.75c-0,0.413 -0.336,0.749 -0.75,0.75l-0.002,-0c-0.596,-0 -1.168,0.236 -1.59,0.658c-0.421,0.422 -0.658,0.993 -0.658,1.59c0,2.614 0,6.387 0,9.002c-0,1.242 1.007,2.25 2.25,2.25l-0,-0c0.414,-0 0.75,0.336 0.75,0.75c-0,0.413 -0.336,0.749 -0.75,0.75l-0,-0l-0.001,-0Z"/></g></svg>