<svg width="58" height="58" viewBox="0 0 58 58" fill="none" xmlns="http://www.w3.org/2000/svg">
<path d="M45.9167 33.8333V43.5H41.0833V33.8333H45.9167ZM16.9167 33.8333V43.5H14.5C13.1708 43.5 12.0833 42.4125 12.0833 41.0833V33.8333H16.9167ZM29 2.41663C16.9892 2.41663 7.25 12.1558 7.25 24.1666V41.0833C7.25 45.095 10.4883 48.3333 14.5 48.3333H21.75V29H12.0833V24.1666C12.0833 14.8141 19.6475 7.24996 29 7.24996C38.3525 7.24996 45.9167 14.8141 45.9167 24.1666V29H36.25V48.3333H45.9167V50.75H29V55.5833H43.5C47.5117 55.5833 50.75 52.345 50.75 48.3333V24.1666C50.75 12.1558 41.0108 2.41663 29 2.41663Z" fill="#323232"/>
</svg>
