<svg width="58" height="58" viewBox="0 0 58 58" fill="none" xmlns="http://www.w3.org/2000/svg">
<path d="M53.1665 21.75H41.5907L31.0057 5.89671C30.5465 5.22005 29.7732 4.88171 28.9998 4.88171C28.2265 4.88171 27.4532 5.22005 26.994 5.92088L16.409 21.75H4.83317C3.504 21.75 2.4165 22.8375 2.4165 24.1667C2.4165 24.3842 2.44067 24.6017 2.51317 24.8192L8.6515 47.2217C9.20734 49.2517 11.0682 50.75 13.2915 50.75H44.7082C46.9315 50.75 48.7923 49.2517 49.3723 47.2217L55.5107 24.8192L55.5832 24.1667C55.5832 22.8375 54.4957 21.75 53.1665 21.75ZM28.9998 11.6L35.7665 21.75H22.2332L28.9998 11.6ZM44.7082 45.9167L13.3157 45.9409L7.999 26.5834H50.0248L44.7082 45.9167ZM28.9998 31.4167C26.3415 31.4167 24.1665 33.5917 24.1665 36.25C24.1665 38.9084 26.3415 41.0834 28.9998 41.0834C31.6582 41.0834 33.8332 38.9084 33.8332 36.25C33.8332 33.5917 31.6582 31.4167 28.9998 31.4167Z" fill="#353A40"/>
</svg>
